

[center]

      Another Fine Release Brought to you from - ZOMBiES                  
                                               

******************************************************************************************                              
                       The Descendants 2011 SCREENER XviD - ZOMBiES                                                              
******************************************************************************************

[img]http://pokit.org/get/b25125669af05926d51c27368380bdde.jpg[/img]


Release Name : The Descendants 2011 SCREENER XviD - ZOMBiES
Rating : 8.0/10
Genre : Comedy, Drama
Stars : George Clooney, Shailene Woodley, Amara Miller, Nick Krause
Director : Alexander Payne
Writers : Alexander Payne, Nat Faxon
Release Date : 9 Dec 2011
Movie Runtime : 1 hr 55 mins
Rated Under : R
Movie Plot : A land baron tries to re-connect with his two daughters after his wife suffers a boating accident

[img]http://pokit.org/get/92058fa0f12144260526be49496883ff.jpg[/img]



Format                           : AVI
Format/Info                      : Audio Video Interleave
File size                        : 906 MiB
Duration                         : 1h 55mn
Overall bit rate                 : 1 097 Kbps
Writing library                  : VirtualDub build 32842/release

Video
ID                               : 0
Format                           : MPEG-4 Visual
Format profile                   : Advanced Simple@L5
Format settings, BVOP            : 2
Format settings, QPel            : No
Format settings, GMC             : No warppoints
Format settings, Matrix          : Default (H.263)
Muxing mode                      : Packed bitstream
Codec ID                         : XVID
Codec ID/Hint                    : XviD
Duration                         : 1h 55mn
Bit rate                         : 959 Kbps
Width                            : 718 pixels
Height                           : 360 pixels
Display aspect ratio             : 1.994
Frame rate                       : 25.000 fps
Color space                      : YUV
Chroma subsampling               : 4:2:0
Bit depth                        : 8 bits
Scan type                        : Progressive
Compression mode                 : Lossy
Bits/(Pixel*Frame)               : 0.148
Stream size                      : 792 MiB (87%)
Writing library                  : XviD 64

Audio
ID                               : 1
Format                           : MPEG Audio
Format version                   : Version 1
Format profile                   : Layer 3
Mode                             : Joint stereo
Codec ID                         : 55
Codec ID/Hint                    : MP3
Duration                         : 1h 55mn
Bit rate mode                    : Constant
Bit rate                         : 128 Kbps
Channel(s)                       : 2 channels
Sampling rate                    : 48.0 KHz
Compression mode                 : Lossy
Stream size                      : 106 MiB (12%)
Alignment                        : Split accross interleaves
Interleave, duration             : 40 ms (1.00 video frame)
Interleave, preload duration     : 500 ms

Want to know what's ZOMBiES next release ? 
join our facebook page :

GREETS:

FLAWL3SS,ViSiON,Rx,ELEKTRI4KA,26K,DTRG,3LT0N,RemixHD
And to all the other p2p grps past and present .

Looking for these,syncers,cammers,audio,silver supplier.....Have anything to offer????......
You know how to find us .


[img]http://img715.imageshack.us/img715/6743/s4jxx.jpg[/img]
[img]http://img718.imageshack.us/img718/2382/mvik4.jpg[/img]
[img]http://img856.imageshack.us/img856/6594/lbev1.jpg[/img][/center]